<svg width="43" height="43" viewBox="0 0 43 43" fill="none" xmlns="http://www.w3.org/2000/svg">
<path opacity="0.4" fill-rule="evenodd" clip-rule="evenodd" d="M6.611 8.77734C8.17581 8.77734 9.44434 10.0459 9.44434 11.6107L9.44433 32.3885C9.44433 33.9533 8.17581 35.2218 6.611 35.2218C5.04619 35.2218 3.77767 33.9533 3.77767 32.3885L3.77767 11.6107C3.77767 10.0459 5.0462 8.77734 6.611 8.77734Z" fill="white"/>
<path fill-rule="evenodd" clip-rule="evenodd" d="M14.1667 12.5547C15.7315 12.5547 17 13.8232 17 15.388L17 36.1658C17 37.7306 15.7315 38.9991 14.1667 38.9991C12.6019 38.9991 11.3333 37.7306 11.3333 36.1658L11.3333 15.388C11.3333 13.8232 12.6019 12.5547 14.1667 12.5547Z" fill="white"/>
<path fill-rule="evenodd" clip-rule="evenodd" d="M29.278 5C30.8428 5 32.1113 6.26853 32.1113 7.83333L32.1113 32.3889C32.1113 33.9537 30.8428 35.2222 29.278 35.2222C27.7132 35.2222 26.4447 33.9537 26.4447 32.3889L26.4447 7.83333C26.4447 6.26853 27.7132 5 29.278 5Z" fill="white"/>
<path opacity="0.4" fill-rule="evenodd" clip-rule="evenodd" d="M36.8332 12.5547C38.398 12.5547 39.6665 13.8232 39.6665 15.388L39.6665 36.1658C39.6665 37.7306 38.398 38.9991 36.8332 38.9991C35.2684 38.9991 33.9998 37.7306 33.9998 36.1658L33.9998 15.388C33.9998 13.8232 35.2684 12.5547 36.8332 12.5547Z" fill="white"/>
<path opacity="0.4" fill-rule="evenodd" clip-rule="evenodd" d="M21.7223 16.334C23.2871 16.334 24.5557 17.6025 24.5557 19.1673L24.5557 30.5007C24.5557 32.0655 23.2871 33.334 21.7223 33.334C20.1575 33.334 18.889 32.0655 18.889 30.5007L18.889 19.1673C18.889 17.6025 20.1575 16.334 21.7223 16.334Z" fill="white"/>
</svg>
